<svg xmlns="http://www.w3.org/2000/svg" viewBox="0 0 64 64" role="img" aria-label="aide">
  <defs>
    <linearGradient id="bg" x1="0" y1="0" x2="1" y2="1">
      <stop offset="0" stop-color="#7b7af4"/>
      <stop offset="1" stop-color="#5048e5"/>
    </linearGradient>
  </defs>
  <rect x="4" y="4" width="56" height="56" rx="15" fill="url(#bg)"/>
  <path transform="translate(5.6 13.6) scale(1.7)"
        d="M12 1 C12 7 7 12 1 12 C7 12 12 17 12 23 C12 17 17 12 23 12 C17 12 12 7 12 1 Z"
        fill="#ffffff"/>
  <path transform="translate(37.2 13.2) scale(0.65)"
        d="M12 1 C12 7 7 12 1 12 C7 12 12 17 12 23 C12 17 17 12 23 12 C17 12 12 7 12 1 Z"
        fill="#ffffff"/>
</svg>
